<svg xmlns="http://www.w3.org/2000/svg" enable-background="new 0 0 24 24" viewBox="0 0 24 24" id="amd">
  <polygon fill="#4CAF50" points="18.277 14.863 20.523 14.863 22.127 13.179 19.881 13.179 19.881 10.826 18.277 12.506 18.277 14.863"></polygon>
  <polygon fill="#4CAF50" points="24 14.812 24 8.863 18.324 8.863 19.883 10.497 22.439 10.497 22.439 13.177 24 14.812"></polygon>
  <polygon fill="#429846" points="22.127 13.179 19.892 13.179 18.277 14.852 18.277 14.863 20.523 14.863 22.127 13.179"></polygon>
  <polygon fill="#429846" points="24 8.924 22.439 10.541 22.439 13.177 24 14.812 24 8.924"></polygon>
  <polygon fill="#212121" points="8.878 11.198 7.287 9.264 6.209 9.264 6.209 14.456 7.447 14.456 7.447 11.216 8.785 12.853 8.973 12.853 10.311 11.223 10.311 14.461 11.549 14.461 11.549 9.264 10.47 9.264 8.878 11.198"></polygon>
  <path fill="#212121" d="M1.679 13.432H3.9l.408 1.029h1.338L3.432 9.264H2l-2 5.197h1.309L1.679 13.432 1.679 13.432zM2.744 10.504l.791 2.025H2.008L2.744 10.504 2.744 10.504zM14.682 9.264h-2.19v5.197h2.057c1.979 0 2.88-1.096 2.88-2.59C17.429 10.446 16.492 9.264 14.682 9.264L14.682 9.264zM14.535 13.51h-.806v-3.293h.792c1.17 0 1.63.745 1.63 1.645C16.151 12.626 15.779 13.51 14.535 13.51L14.535 13.51z"></path>
  <polygon fill="#3E3E3E" points="11.549 9.264 10.47 9.264 8.878 11.198 7.287 9.264 6.209 9.264 6.209 12 7.447 12 7.447 11.216 8.088 12 9.673 12 10.311 11.223 10.311 12 11.549 12 11.549 9.264"></polygon>
  <polygon fill="#3E3E3E" points="3.432 9.264 2 9.264 .947 12 2.2 12 2.744 10.504 3.329 12 4.598 12 3.432 9.264"></polygon>
  <path fill="#FFF" d="M14.521,10.218h-0.792V12h2.418c0.003-0.046,0.004-0.092,0.004-0.137C16.151,10.963,15.691,10.218,14.521,10.218L14.521,10.218z"></path>
  <path fill="#3E3E3E" d="M14.682,9.264h-2.19V12h1.237v-1.782h0.792c1.17,0,1.63,0.745,1.63,1.645c0,0.045-0.001,0.091-0.004,0.137h1.28c0.001-0.042,0.002-0.085,0.002-0.128C17.429,10.446,16.492,9.264,14.682,9.264L14.682,9.264z"></path>
</svg>
